<svg width="325" height="195" viewBox="0 0 325 195" version="1.1" xmlns="http://www.w3.org/2000/svg" xmlns:xlink="http://www.w3.org/1999/xlink">
<title>Group 2</title>
<desc>Created using Figma</desc>
<g id="Canvas" transform="translate(-447 -2298)">
<g id="Group 2">
<g id="Group">
<g id="Group">
<g id="Vector">
<use xlink:href="#path0_fill" transform="translate(535.913 2302.16)" fill="#E6E6E6"/>
</g>
<g id="Vector">
<use xlink:href="#path1_fill" transform="translate(511 2298)" fill="#E86C60"/>
</g>
<g id="Vector">
<use xlink:href="#path2_fill" transform="translate(575.329 2368.7)" fill="#72C472"/>
</g>
<g id="Vector">
<use xlink:href="#path3_fill" transform="translate(560.826 2401.98)" fill="#4DA34D"/>
</g>
</g>
</g>
<g id="Group">
<g id="Group">
<g id="Vector">
<use xlink:href="#path4_fill" transform="translate(736.952 2477.64)" fill="#A67C52"/>
</g>
<g id="Vector">
<use xlink:href="#path5_fill" transform="translate(708 2427)" fill="#4DA34D"/>
</g>
<g id="Vector">
<use xlink:href="#path6_fill" transform="translate(744.876 2427)" fill="#4DA34D"/>
</g>
<g id="Vector">
<use xlink:href="#path7_fill" transform="translate(717.143 2430)" fill="#72C472"/>
</g>
</g>
</g>
<g id="Group">
<g id="Group">
<g id="Vector">
<use xlink:href="#path8_fill" transform="translate(447 2446.45)" fill="#EEBC99"/>
</g>
<g id="Vector">
<use xlink:href="#path9_fill" transform="translate(487.348 2446.45)" fill="#EEBC99"/>
</g>
<g id="Vector">
<use xlink:href="#path10_fill" transform="translate(486.876 2431.12)" fill="#72C472"/>
</g>
<g id="Vector">
<use xlink:href="#path11_fill" transform="translate(462.32 2427)" fill="#72C472"/>
</g>
<g id="Vector">
<use xlink:href="#path12_fill" transform="translate(462.359 2427.21)" fill="#BADEFC"/>
</g>
<g id="Vector">
<use xlink:href="#path13_fill" transform="translate(472.786 2443.3)" fill="#72C472"/>
</g>
</g>
</g>
</g>
</g>
<defs>
<path id="path0_fill" d="M 70.5869 0L 0 62.8491L 0 170.523C 0 175.117 3.71806 178.841 8.30434 178.841L 132.869 178.841C 137.456 178.841 141.174 175.117 141.174 170.523L 141.174 62.8491L 70.5869 0Z"/>
<path id="path1_fill" d="M 186.846 91.4991C 185.85 91.4991 184.851 91.1416 184.054 90.4186L 95.5 9.77841L 6.94608 90.4187C 5.24709 91.9621 2.62159 91.8321 1.08072 90.1384C -0.462143 88.4366 -0.338492 85.8087 1.35846 84.2612L 92.7062 1.07836C 94.2917 -0.359454 96.7084 -0.359454 98.2938 1.07836L 189.642 84.2612C 191.338 85.8087 191.462 88.4366 189.919 90.1384C 189.1 91.0401 187.975 91.4991 186.846 91.4991Z"/>
<path id="path2_fill" d="M 67.271 1.16618C 66.4235 0.345703 65.2841 -0.0807333 64.0798 0.012681C 62.5552 0.124396 26.4995 2.95944 11.6263 17.8556C -6.58814 36.1006 1.94735 62.5846 2.32038 63.7036C 2.73804 64.9668 3.73959 65.9518 5.00875 66.3539C 5.5521 66.5265 12.0845 68.5289 20.7051 68.5289C 29.9096 68.5289 41.4984 66.2442 50.715 57.01C 66.9588 40.739 68.4794 5.79855 68.5361 4.3201C 68.5807 3.13611 68.1225 1.98869 67.271 1.16618Z"/>
<path id="path3_fill" d="M 4.15215 49.9097C 3.08978 49.9097 2.0274 49.5035 1.21644 48.6912C -0.405481 47.0665 -0.405481 44.4345 1.21644 42.8099L 42.7381 1.21849C 44.3601 -0.406158 46.9876 -0.406158 48.6096 1.21849C 50.2315 2.84313 50.2315 5.47511 48.6096 7.09976L 7.08786 48.6912C 6.2769 49.5035 5.21452 49.9097 4.15215 49.9097Z"/>
<path id="path4_fill" d="M 3.04763 15.3647C 1.36459 15.3647 0 13.9888 0 12.2918L 0 3.07295C 0 1.37593 1.36459 0 3.04763 0C 4.73067 0 6.09526 1.37593 6.09526 3.07295L 6.09526 12.2918C 6.09526 13.9888 4.73067 15.3647 3.04763 15.3647Z"/>
<path id="path5_fill" d="M 18.1249 0.780986C 17.6086 -0.260328 15.9151 -0.260328 15.3987 0.780986L 0.160595 31.5105C -0.0752765 31.9869 -0.0499658 32.5525 0.227566 33.0057C 0.505083 33.4581 0.995416 33.7341 1.52369 33.7341L 19.9999 33.7341C 20.8415 33.7341 21.5238 33.0462 21.5238 32.1977C 21.5238 31.5684 21.1465 31.0306 20.6094 30.7931L 24.9972 20.6807C 25.397 20.8569 25.8599 20.8781 26.2812 20.6659C 27.0342 20.2863 27.3392 19.3635 26.9628 18.6042L 18.1249 0.780986Z"/>
<path id="path6_fill" d="M 26.9634 31.5105L 11.7253 0.780986C 11.2089 -0.260328 9.51547 -0.260328 8.99911 0.780986L 0.16129 18.6042C -0.215199 19.3635 0.089853 20.2863 0.842846 20.6659C 1.26491 20.878 1.72744 20.8565 2.1268 20.6803L 6.51465 30.7931C 5.97752 31.0306 5.60029 31.5684 5.60029 32.1977C 5.60029 33.0462 6.28257 33.7341 7.1241 33.7341L 25.6003 33.7341C 26.1286 33.7341 26.619 33.4581 26.8965 33.0057C 27.174 32.5525 27.1993 31.9869 26.9634 31.5105Z"/>
<path id="path7_fill" d="M 44.1904 52.2401L 1.52361 52.2401C 1.00947 52.2401 0.529564 51.9783 0.248314 51.5446C -0.0329368 51.111 -0.0783307 50.5626 0.12778 50.0877L 21.4612 0.920532C 21.7037 0.361609 22.2514 0 22.857 0C 23.4627 0 24.0103 0.361609 24.2529 0.920532L 45.5863 50.0877C 45.7923 50.5626 45.747 51.111 45.4657 51.5446C 45.1845 51.9782 44.7045 52.2401 44.1904 52.2401Z"/>
<path id="path8_fill" d="M 15.3043 30.6087L 14.2705 19.2359C 14.0785 17.1246 15.7409 15.3043 17.8608 15.3043C 19.6031 15.3043 21.0961 16.5504 21.4078 18.2646L 23.2033 28.1401C 23.502 29.7825 23.6522 31.4484 23.6522 33.1178L 23.6522 44.5217L 8.34783 44.5217L 1.78443 33.5828C 0.616793 31.6367 0 29.4099 0 27.1404L 0 3.0129C 0 1.34892 1.34893 0 3.0129 0C 4.48572 0 5.74268 1.06479 5.98481 2.51758L 9.15272 21.5251C 9.53411 23.8134 10.6209 25.9253 12.2613 27.5657L 15.3043 30.6087Z"/>
<path id="path9_fill" d="M 8.34783 30.6087L 9.38172 19.2359C 9.57365 17.1246 7.91132 15.3043 5.79139 15.3043C 4.04907 15.3043 2.55608 16.5504 2.2444 18.2646L 0.44885 28.1401C 0.15022 29.7825 0 31.4484 0 33.1178L 0 44.5217L 15.3043 44.5217L 21.8677 33.5828C 23.0354 31.6367 23.6522 29.4099 23.6522 27.1404L 23.6522 3.0129C 23.6522 1.34892 22.3032 0 20.6393 0C 19.1665 0 17.9095 1.06479 17.6674 2.51758L 14.4994 21.5251C 14.1181 23.8134 13.0312 25.9253 11.3909 27.5657L 8.34783 30.6087Z"/>
<path id="path10_fill" d="M 1.36053 1.27021C 0.480499 2.32626 1.68104 4.84967 1.36053 6.40185C 0.933466 8.47026 -0.692135 9.48083 0.334202 10.5072C 0.877312 11.0503 2.40218 12.6477 8.70501 14.3786C 9.23311 9.5204 7.64275 4.47345 3.92635 0.757036C 3.66195 0.492619 3.38848 0.242963 3.11113 -1.41495e-07C 2.58972 0.226435 1.92882 0.588216 1.36053 1.27021Z"/>
<path id="path11_fill" d="M 3.33696 17.7065C 4.90424 17.3108 6.93049 16.2626 7.44228 13.6012C 7.78268 11.8313 7.52357 9.41462 8.46861 8.46958C 9.72458 7.21361 13.236 9.80486 15.6529 9.4959C 17.7897 9.22275 18.908 6.07147 19.2171 4.84682C 19.5317 3.60068 19.4556 1.52362 19.3044 0.206344C 14.2037 -0.599582 8.79902 0.954852 4.87646 4.87741C 1.33351 8.42035 -0.276018 13.1726 0.0385703 17.8178C 1.12805 17.9053 2.71044 17.8648 3.33696 17.7065Z"/>
<path id="path12_fill" d="M 33.2221 18.2927C 26.9193 16.5617 25.3944 14.9643 24.8513 14.4212C 23.825 13.3949 25.4506 12.3843 25.8776 10.3159C 26.1981 8.7637 24.9976 6.24029 25.8776 5.18424C 26.4459 4.50225 27.1068 4.14047 27.6282 3.91405C 25.1937 1.78165 22.284 0.47687 19.2659 9.71255e-09C 19.417 1.31727 19.4931 3.39432 19.1785 4.64047C 18.8694 5.86513 17.7511 9.0164 15.6143 9.28956C 13.1974 9.59851 9.68601 7.00725 8.43004 8.26323C 7.48498 9.20829 7.74411 11.625 7.40371 13.3949C 6.89192 16.0562 4.86567 17.1045 3.29839 17.5002C 2.67187 17.6584 1.08947 17.699 -2.7556e-07 17.6115C 0.26329 21.499 1.87281 25.3116 4.83788 28.2767C 11.3459 34.7847 21.9354 34.7847 28.4435 28.2767C 31.2351 25.485 32.8254 21.942 33.2221 18.2927ZM 10.4827 24.6845C 9.96953 22.1187 13.1341 22.5463 15.728 17.4157C 16.813 15.2695 20.4152 15.945 22.3991 17.9288C 24.383 19.9128 24.5897 22.8767 22.9123 24.6C 19.7906 27.8073 11.1104 27.8231 10.4827 24.6845Z"/>
<path id="path13_fill" d="M 11.9717 1.83687C 9.98779 -0.147007 6.38558 -0.822444 5.30053 1.3237C 2.70661 6.45431 -0.457916 6.02668 0.0552386 8.59251C 0.682981 11.7311 9.36312 11.7153 12.4848 8.50801C 14.1622 6.78472 13.9556 3.82077 11.9717 1.83687Z"/>
</defs>
</svg>
